# Blender 5.1.2
# www.blender.org
mtllib Untitled.mtl
o Cube
v 0.716746 0.095025 -0.856324
v 0.716746 -0.197380 -0.856324
v 0.427746 0.057163 0.843980
v 0.427746 -0.188817 0.843980
v -0.716746 0.095025 -0.842753
v -0.716746 -0.197380 -0.842753
v -0.683618 0.057163 0.843980
v -0.683618 -0.188817 0.843980
v -1.000000 -0.299897 0.042771
v 0.924242 0.246375 0.042771
v -1.000000 0.246375 0.042771
v 0.924242 -0.299897 0.042771
v -1.000000 -0.270597 0.521385
v 0.737912 0.176110 0.521385
v -1.000000 0.176110 0.521385
v 0.737912 -0.270597 0.521385
v -1.000000 0.187776 -0.478615
v 0.930457 -0.270597 -0.478615
v -1.000000 -0.270597 -0.478615
v 0.930457 0.187776 -0.478615
v 1.611019 0.055089 0.835545
v 1.611019 -0.146289 0.835545
v 1.727111 0.099664 0.571444
v 1.727111 -0.160436 0.571444
v 2.081280 -0.163217 0.352165
v 2.140175 -0.159653 0.067377
v 2.140175 0.123396 0.067377
v 2.081280 0.102585 0.352165
v 2.317731 0.098215 -0.448223
v 2.314402 0.108035 -0.168996
v 2.314402 -0.141394 -0.168996
v 2.317731 -0.147266 -0.448223
v 2.034113 0.035335 -0.860117
v 2.034113 -0.164086 -0.860117
v 2.088769 -0.184344 -0.611775
v 2.088769 0.068915 -0.611775
v 1.108393 0.150520 0.538143
v 1.108393 -0.233721 0.538143
v 0.863193 -0.174581 0.841156
v 0.863193 0.056469 0.841156
v 1.476523 0.125092 0.554793
v 1.476523 -0.197078 0.554793
v 1.295877 -0.160435 0.838350
v 1.295877 0.055779 0.838350
v 1.257940 0.212625 0.049524
v 1.257940 -0.261408 0.049524
v 1.106583 -0.241128 0.474945
v 1.106583 0.155932 0.474945
v 1.699058 0.168010 0.058450
v 1.593932 -0.202172 0.413555
v 1.699058 -0.210531 0.058450
v 1.593932 0.129259 0.413555
v 1.355974 -0.250672 -0.022996
v 1.355974 0.203411 -0.022996
v 1.361293 0.159961 -0.469176
v 1.361293 -0.232295 -0.469176
v 1.835188 -0.196033 -0.095996
v 1.839512 0.129088 -0.458700
v 1.835188 0.155723 -0.095996
v 1.839512 -0.189780 -0.458700
v 1.327845 -0.238660 -0.527920
v 1.327845 0.143765 -0.527920
v 1.173027 0.072924 -0.849182
v 1.173027 -0.185052 -0.849182
v 1.665770 -0.211502 -0.569847
v 1.561033 0.054129 -0.854650
v 1.665770 0.106340 -0.569847
v 1.561033 -0.174569 -0.854650
v 0.911341 -0.172558 -0.966457
v 0.237378 -0.172558 -1.210871
v 0.911341 0.022589 -0.966457
v 0.237378 0.022589 -1.210871
v 1.264718 -0.172558 -1.088707
v 1.269885 -0.172558 -1.325867
v 1.264718 0.022589 -1.088707
v 1.269885 0.022589 -1.325867
v -0.841809 -0.229707 0.682683
v 0.000000 -0.197380 -0.849539
v 0.716746 -0.051177 -0.856324
v -0.683618 -0.065827 0.843980
v 0.427746 -0.065827 0.843980
v -0.716746 -0.051177 -0.842753
v -0.127936 0.057163 0.843980
v 0.582829 0.116637 0.682683
v -0.127936 -0.188817 0.843980
v -0.858373 0.141400 -0.660684
v 0.000000 0.095025 -0.849539
v 0.823601 -0.233989 -0.667470
v -1.000000 -0.285247 -0.217922
v 0.927349 0.217075 -0.217922
v -1.000000 0.211243 0.282078
v 0.831077 -0.285247 0.282078
v 0.924242 -0.026761 0.042771
v -0.037879 -0.299897 0.042771
v -1.000000 -0.026761 0.042771
v -0.037879 0.246375 0.042771
v -1.000000 -0.285247 0.282078
v 0.831077 0.211243 0.282078
v -0.841809 0.116637 0.682683
v 0.582829 -0.229707 0.682683
v -1.000000 -0.047243 0.521385
v 0.737912 -0.047243 0.521385
v -0.131044 -0.270597 0.521385
v -0.131044 0.176110 0.521385
v -1.000000 0.217075 -0.217922
v 0.927349 -0.285247 -0.217922
v -0.858373 -0.233989 -0.660684
v 0.823601 0.141400 -0.667470
v -0.034771 0.187776 -0.478615
v -0.034771 -0.270597 -0.478615
v 0.930457 -0.041411 -0.478615
v -1.000000 -0.041411 -0.478615
v 1.611019 -0.045600 0.835545
v 1.669065 0.077377 0.703495
v 1.669065 -0.153362 0.703495
v 1.727111 -0.030386 0.571444
v 1.601817 0.112378 0.563119
v 0.923152 -0.252159 0.529764
v 0.645469 -0.181699 0.842568
v 0.645469 0.056816 0.842568
v 2.110728 -0.161435 0.209771
v 2.140175 -0.018128 0.067377
v 2.110728 0.112990 0.209771
v 2.081280 -0.030316 0.352165
v 1.919617 0.145703 0.062914
v 1.091091 -0.280653 0.046147
v 1.837606 -0.182695 0.382860
v 0.922247 0.166021 0.498165
v 2.316067 0.103125 -0.308610
v 2.314402 -0.016680 -0.168996
v 2.316067 -0.144330 -0.308610
v 2.317731 -0.024526 -0.448223
v 2.074795 -0.168714 -0.132496
v 1.140108 0.224893 0.009887
v 2.078622 0.113651 -0.453461
v 1.145875 -0.251446 -0.473895
v 2.034113 -0.064375 -0.860117
v 2.061441 -0.174215 -0.735946
v 2.061441 0.052125 -0.735946
v 2.088769 -0.057715 -0.611775
v 1.877269 -0.197923 -0.590811
v 1.129151 0.165770 -0.503267
v 1.797573 0.044732 -0.857383
v 0.944886 -0.191216 -0.852753
v 0.923152 0.163315 0.529764
v 1.292458 -0.215399 0.546468
v 1.079535 -0.167508 0.839753
v 1.079535 0.056124 0.839753
v 0.985793 0.103494 0.689649
v 0.863193 -0.059056 0.841156
v 0.985793 -0.204151 0.689649
v 1.108393 -0.041600 0.538143
v 1.292458 0.137806 0.546468
v 1.601817 -0.178757 0.563119
v 1.453448 -0.153362 0.836948
v 1.453448 0.055434 0.836948
v 1.386200 0.090436 0.696572
v 1.295877 -0.052328 0.838350
v 1.386200 -0.178756 0.696572
v 1.476523 -0.035993 0.554793
v 1.091091 0.229500 0.046147
v 1.478499 -0.235969 0.053987
v 0.922247 -0.255863 0.498165
v 1.350257 0.142595 0.444250
v 1.182262 -0.251268 0.262234
v 1.182262 0.184278 0.262234
v 1.106583 -0.042598 0.474945
v 1.257940 -0.024392 0.049524
v 1.478499 0.190317 0.053987
v 1.350257 -0.221650 0.444250
v 1.919617 -0.185092 0.062914
v 1.837606 0.115922 0.382860
v 1.646495 -0.206351 0.236003
v 1.646495 0.148634 0.236003
v 1.593932 -0.036457 0.413555
v 1.699058 -0.021260 0.058450
v 1.140108 -0.275284 0.009887
v 1.595581 0.179567 -0.059496
v 1.145875 0.173868 -0.473895
v 1.600403 -0.211038 -0.463938
v 1.358634 -0.241483 -0.246086
v 1.358634 0.181686 -0.246086
v 1.361293 -0.036167 -0.469176
v 1.355974 -0.023630 -0.022996
v 1.595581 -0.223352 -0.059496
v 1.600403 0.144525 -0.463938
v 2.074795 0.131879 -0.132496
v 2.078622 -0.168523 -0.453461
v 1.837350 -0.192907 -0.277348
v 1.837350 0.142406 -0.277348
v 1.839512 -0.030346 -0.458700
v 1.835188 -0.020155 -0.095996
v 1.129151 -0.254629 -0.503267
v 1.496807 0.125052 -0.548884
v 0.944886 0.083975 -0.852753
v 1.367030 -0.179810 -0.851916
v 1.250436 0.108344 -0.688551
v 1.250436 -0.211856 -0.688551
v 1.173027 -0.056064 -0.849182
v 1.327845 -0.047448 -0.527920
v 1.496807 -0.225081 -0.548884
v 1.367030 0.063527 -0.851916
v 1.877269 0.087627 -0.590811
v 1.797573 -0.169327 -0.857383
v 1.613401 0.080235 -0.712249
v 1.613401 -0.193035 -0.712249
v 1.561033 -0.060220 -0.854650
v 1.665770 -0.052581 -0.569847
v 0.574359 -0.172558 -1.088664
v 0.911341 -0.074985 -0.966457
v 0.237378 -0.074985 -1.210871
v 0.574359 0.022589 -1.088664
v 0.814043 -0.184969 -0.911391
v 0.814043 0.058807 -0.911391
v -0.239684 0.058807 -1.026812
v -0.239684 -0.184969 -1.026812
v 1.267301 -0.172558 -1.207287
v 1.264718 -0.074985 -1.088707
v 1.269885 -0.074985 -1.325867
v 1.267301 0.022589 -1.207287
v 1.088029 -0.172558 -1.027582
v 1.088029 0.022589 -1.027582
v 0.753631 0.022589 -1.268369
v 0.753631 -0.172558 -1.268369
v 0.920830 0.022589 -1.147975
v 0.920830 -0.172558 -1.147975
v 0.753631 -0.074985 -1.268369
v 1.267301 -0.074985 -1.207287
v 0.287180 0.058807 -0.969101
v 0.287180 -0.184969 -0.969101
v -0.239684 -0.063081 -1.026812
v 1.088029 -0.074985 -1.027582
v 1.496807 -0.050014 -0.548884
v 1.367030 -0.058142 -0.851916
v 1.431919 -0.202446 -0.700400
v 1.431919 0.094290 -0.700400
v 1.129151 -0.044429 -0.503267
v 0.944886 -0.053621 -0.852753
v 1.037019 -0.222922 -0.678010
v 1.037019 0.124872 -0.678010
v 1.595581 -0.021893 -0.059496
v 1.600403 -0.033257 -0.463938
v 1.597992 0.162046 -0.261717
v 1.597992 -0.217195 -0.261717
v 1.140108 -0.025196 0.009887
v 1.145875 -0.038789 -0.473895
v 1.142992 0.199381 -0.232004
v 1.142992 -0.263365 -0.232004
v 1.478499 -0.022826 0.053987
v 1.350257 -0.039527 0.444250
v 1.414378 0.166456 0.249118
v 1.414378 -0.228810 0.249118
v 1.091091 -0.025576 0.046147
v 0.922247 -0.044921 0.498165
v 1.006669 0.197760 0.272156
v 1.006669 -0.268258 0.272156
v 1.292458 -0.038797 0.546468
v 1.185997 -0.191454 0.693111
v 1.079535 -0.055692 0.839753
v 1.185997 0.096965 0.693111
v 0.923152 -0.044422 0.529764
v 0.784311 -0.216929 0.686166
v 0.645469 -0.062442 0.842568
v 0.784311 0.110065 0.686166
v 1.837421 0.066180 -0.724097
v 1.837421 -0.183625 -0.724097
v 1.797573 -0.062297 -0.857383
v 2.061441 -0.061045 -0.735946
v 2.076708 -0.168618 -0.292979
v 2.076708 0.122765 -0.292979
v 2.078622 -0.027436 -0.453461
v 2.316067 -0.020603 -0.308610
v 1.878611 -0.183893 0.222887
v 1.878611 0.130812 0.222887
v 1.837606 -0.033386 0.382860
v 2.110728 -0.024222 0.209771
v 1.527632 0.083906 0.700033
v 1.453448 -0.048964 0.836948
v 1.527632 -0.166059 0.700033
v 1.669065 -0.037993 0.703495
v -1.000000 -0.034086 -0.217922
v 1.877269 -0.055148 -0.590811
v -0.017386 -0.233989 -0.664077
v -0.017386 0.141400 -0.664077
v -0.084462 0.211243 0.282078
v -0.084462 -0.285247 0.282078
v 1.919617 -0.019694 0.062914
v -0.841809 -0.056535 0.682683
v -0.036325 0.217075 -0.217922
v -1.000000 -0.037002 0.282078
v -0.036325 -0.285247 -0.217922
v 2.074795 -0.018417 -0.132496
v 0.814043 -0.063081 -0.911391
v 1.601817 -0.033189 0.563119
v -0.129490 -0.229707 0.682683
v -0.858373 -0.046294 -0.660684
v -0.127936 -0.065827 0.843980
v -0.129490 0.116637 0.682683
vn -0.0000 0.9383 0.3460
vn -0.0000 -0.0000 1.0000
vn -0.7893 -0.0000 -0.6140
vn -0.0000 -0.9693 0.2457
vn 0.0254 -0.9649 0.2614
vn 0.0116 -0.9675 0.2525
vn 0.0663 -0.0000 -0.9978
vn 0.4925 -0.0000 0.8703
vn 0.4143 -0.0000 0.9102
vn 0.4114 -0.0000 0.9114
vn 0.1506 -0.0000 0.9886
vn -0.0000 -0.9984 -0.0561
vn 0.0489 -0.9974 -0.0538
vn 0.0570 -0.9982 0.0165
vn -0.0000 -1.0000 0.0025
vn -1.0000 -0.0000 -0.0000
vn -0.0000 0.9937 -0.1117
vn -0.0000 0.9999 0.0169
vn -0.7139 -0.0000 0.7002
vn 0.0202 -0.0000 -0.9998
vn -0.0000 -0.9981 0.0611
vn 0.0500 -0.9957 0.0785
vn 0.0425 -0.9831 0.1781
vn -0.0000 -0.9881 0.1541
vn -0.0000 0.9894 0.1453
vn -0.0000 0.9765 0.2155
vn -0.0000 0.9690 0.2469
vn -0.0010 0.9701 -0.2427
vn -0.0008 0.9695 -0.2450
vn -0.0002 0.9869 -0.1614
vn -0.0002 0.9841 -0.1776
vn -0.0008 -0.9810 -0.1938
vn 0.0192 -0.9799 -0.1985
vn 0.0386 -0.9911 -0.1273
vn -0.0002 -0.9921 -0.1253
vn 0.0986 -0.0000 0.9951
vn 0.9155 -0.0000 0.4024
vn 0.0860 -0.9867 0.1379
vn 0.1081 -0.9838 0.1430
vn 0.1091 -0.9860 0.1261
vn 0.0924 -0.9887 0.1181
vn 0.0089 -0.0000 1.0000
vn 0.0402 0.9737 0.2241
vn 0.0209 0.9753 0.2199
vn 0.0212 0.9805 0.1955
vn 0.0458 0.9773 0.2070
vn 0.9793 -0.0000 0.2025
vn 0.1250 -0.0000 0.9922
vn 0.0824 0.9902 0.1127
vn 0.0753 0.9907 0.1134
vn 0.0742 0.9922 0.1003
vn 0.0833 0.9913 0.1023
vn 0.0981 -0.9947 0.0320
vn 0.1058 -0.9939 0.0323
vn 0.1056 -0.9941 0.0227
vn 0.0989 -0.9949 0.0211
vn 0.9999 -0.0000 0.0119
vn 0.0219 -0.0000 -0.9998
vn 0.0781 0.9954 -0.0550
vn 0.0842 0.9949 -0.0559
vn 0.0854 0.9953 -0.0455
vn 0.0784 0.9959 -0.0456
vn 0.1010 -0.9949 0.0012
vn 0.0948 -0.9955 0.0011
vn 0.0950 -0.9954 0.0106
vn 0.1013 -0.9948 0.0106
vn 0.9766 -0.0000 -0.2149
vn -0.0116 -0.0000 -0.9999
vn 0.0356 -0.9925 -0.1167
vn 0.0279 -0.9928 -0.1166
vn 0.0284 -0.9944 -0.1018
vn 0.0373 -0.9939 -0.1040
vn 0.0526 0.9834 -0.1735
vn 0.0608 0.9828 -0.1742
vn 0.0619 0.9848 -0.1624
vn 0.0544 0.9855 -0.1606
vn 0.0249 0.9394 0.3418
vn 0.0139 0.9408 0.3387
vn 0.0141 0.9498 0.3124
vn 0.0257 0.9487 0.3151
vn 0.0065 -0.0000 1.0000
vn 0.0566 -0.9621 0.2668
vn 0.0692 -0.9602 0.2706
vn 0.0708 -0.9684 0.2391
vn 0.0577 -0.9701 0.2359
vn 0.0452 -0.0000 -0.9990
vn 0.0265 0.9579 0.2859
vn 0.0144 0.9588 0.2836
vn 0.0166 0.9673 0.2529
vn 0.0323 0.9661 0.2563
vn 0.0077 -0.0000 1.0000
vn 0.0588 -0.9776 0.2021
vn 0.0725 -0.9761 0.2048
vn 0.0949 -0.9792 0.1792
vn 0.0712 -0.9826 0.1716
vn 0.0552 -0.0000 -0.9985
vn 0.0557 -0.0000 -0.9984
vn 0.1011 -0.9906 0.0920
vn 0.1065 -0.9899 0.0931
vn 0.1064 -0.9909 0.0830
vn 0.1006 -0.9915 0.0821
vn 0.0850 0.9819 0.1695
vn 0.0799 0.9824 0.1689
vn 0.0792 0.9840 0.1599
vn 0.0846 0.9834 0.1602
vn 0.0999 -0.9926 0.0689
vn 0.1063 -0.9919 0.0696
vn 0.1061 -0.9930 0.0528
vn 0.0991 -0.9937 0.0523
vn 0.0840 0.9854 0.1478
vn 0.0782 0.9859 0.1479
vn 0.0769 0.9882 0.1324
vn 0.0833 0.9877 0.1320
vn 0.0978 -0.9941 -0.0477
vn 0.0936 -0.9945 -0.0478
vn 0.0938 -0.9948 -0.0394
vn 0.0983 -0.9944 -0.0393
vn 0.0746 0.9918 -0.1036
vn 0.0787 0.9915 -0.1039
vn 0.0797 0.9922 -0.0957
vn 0.0752 0.9926 -0.0953
vn 0.0991 -0.9947 -0.0288
vn 0.0941 -0.9951 -0.0289
vn 0.0944 -0.9954 -0.0156
vn 0.1000 -0.9949 -0.0155
vn 0.0760 0.9935 -0.0849
vn 0.0809 0.9931 -0.0854
vn 0.0824 0.9940 -0.0724
vn 0.0769 0.9945 -0.0717
vn 0.0619 0.9641 -0.2580
vn 0.0679 0.9634 -0.2594
vn 0.0685 0.9674 -0.2438
vn 0.0611 0.9683 -0.2422
vn 0.0410 -0.9791 -0.1990
vn 0.0351 -0.9795 -0.1982
vn 0.0340 -0.9826 -0.1824
vn 0.0405 -0.9823 -0.1830
vn 0.0157 -0.0000 -0.9999
vn 0.0012 -0.0000 -1.0000
vn 0.0008 -0.0000 -1.0000
vn 0.1231 -0.0000 0.9924
vn 0.0609 0.9728 -0.2233
vn 0.0698 0.9718 -0.2250
vn 0.0644 0.9775 -0.2009
vn 0.0569 0.9781 -0.2000
vn 0.0405 -0.9856 -0.1643
vn 0.0321 -0.9861 -0.1632
vn 0.0307 -0.9894 -0.1417
vn 0.0382 -0.9891 -0.1421
vn -0.0141 -0.0000 -0.9999
vn -0.0129 -0.0000 -0.9999
vn -0.0128 -0.0000 -0.9999
vn 0.1114 -0.0000 0.9938
vn 0.1109 -0.0000 0.9938
vn 0.3269 -0.0000 0.9450
vn -0.3600 -0.0000 -0.9330
vn -0.2400 -0.0000 -0.9708
vn -0.2373 -0.0000 -0.9714
vn 0.0088 -0.9959 -0.0905
vn 0.0043 -0.9975 -0.0708
vn 0.0094 -0.9989 -0.0450
vn 0.0090 -0.9990 -0.0434
vn 0.0250 0.9668 -0.2542
vn 0.0476 0.9554 -0.2914
vn 0.0154 0.9971 -0.0740
vn 0.0257 0.9920 -0.1235
vn 0.9998 -0.0000 0.0218
vn -0.1107 -0.0000 -0.9939
vn -0.0000 -1.0000 -0.0000
vn -0.0000 1.0000 -0.0000
vn 0.0271 0.9911 -0.1302
vn 0.0053 -0.9997 -0.0253
vn -0.2382 -0.0000 -0.9712
vn 0.0123 0.9792 -0.2027
vn -0.0002 0.9706 -0.2406
vn 0.0039 0.9717 -0.2364
vn 0.0165 0.9548 -0.2967
vn 0.0172 -0.9945 -0.1035
vn 0.0084 -0.9862 -0.1654
vn 0.0010 -0.9905 -0.1374
vn -0.0007 -0.9838 -0.1791
vn 0.4190 -0.0000 0.9080
vn 0.1117 -0.0000 0.9937
vn 0.0010 -0.0000 -1.0000
vn 0.0491 -0.9849 -0.1660
vn 0.0456 -0.9887 -0.1430
vn 0.0478 -0.9817 -0.1845
vn 0.0522 0.9736 -0.2222
vn 0.0494 0.9786 -0.1998
vn 0.0548 0.9688 -0.2417
vn 0.0471 -0.9786 -0.2004
vn 0.0562 0.9647 -0.2573
vn 0.0296 0.9672 -0.2523
vn 0.0392 0.9824 -0.1827
vn 0.0710 0.9938 -0.0850
vn 0.0714 0.9949 -0.0718
vn 0.0707 0.9929 -0.0954
vn 0.1039 -0.9942 -0.0293
vn 0.1054 -0.9943 -0.0162
vn 0.1028 -0.9939 -0.0398
vn 0.0705 0.9921 -0.1037
vn 0.0373 0.9933 -0.1095
vn 0.0467 0.9985 0.0302
vn 0.1018 -0.9936 -0.0480
vn 0.0901 0.9848 0.1484
vn 0.0900 0.9871 0.1325
vn 0.0902 0.9828 0.1611
vn 0.0939 -0.9932 0.0690
vn 0.0925 -0.9943 0.0527
vn 0.0950 -0.9921 0.0817
vn 0.0902 0.9812 0.1706
vn 0.0420 0.9863 0.1593
vn 0.0275 0.9655 0.2590
vn 0.0958 -0.9912 0.0913
vn 0.0549 -0.0000 -0.9985
vn 0.0455 -0.9788 0.1997
vn 0.0517 -0.9847 0.1666
vn 0.0450 -0.9715 0.2329
vn 0.0391 0.9567 0.2884
vn 0.0519 0.9637 0.2619
vn 0.0377 0.9473 0.3181
vn 0.0444 -0.9637 0.2634
vn 0.0032 -0.0000 1.0000
vn 0.0364 0.9378 0.3452
vn 0.0099 0.9374 0.3482
vn 0.0037 0.9383 0.3459
vn 0.0446 0.9838 -0.1734
vn 0.0452 0.9864 -0.1583
vn 0.0435 -0.9921 -0.1173
vn 0.0445 -0.9934 -0.1059
vn 0.1072 -0.9942 0.0003
vn 0.1083 -0.9941 0.0107
vn 0.0718 0.9959 -0.0551
vn 0.0721 0.9964 -0.0457
vn 0.0907 -0.9953 0.0327
vn 0.0895 -0.9958 0.0189
vn 0.0899 0.9895 0.1130
vn 0.0898 0.9905 0.1038
vn 0.0600 0.9717 0.2286
vn 0.0609 0.9750 0.2139
vn 0.0645 -0.9890 0.1332
vn 0.0649 -0.9924 0.1049
vn -0.0006 -0.9807 -0.1956
vn -0.0001 -0.9942 -0.1078
vn -0.0000 -0.9922 0.1244
vt 0.817082 0.171013
vt 0.816179 0.031311
vt 0.848223 0.062623
vt 0.848928 0.171604
vt 0.895584 0.237855
vt 0.919729 0.237855
vt 0.919729 0.314240
vt 0.895584 0.314240
vt 0.893667 0.586738
vt 0.930514 0.586738
vt 0.921410 0.630373
vt 0.892708 0.630373
vt 0.392466 0.482102
vt 0.393316 0.342453
vt 0.424892 0.372653
vt 0.424228 0.481593
vt 0.134303 0.784221
vt 0.162880 0.784221
vt 0.160384 0.802991
vt 0.134853 0.802991
vt 0.276291 0.740675
vt 0.276291 0.764603
vt 0.265378 0.762167
vt 0.265378 0.743012
vt 0.677379 0.680532
vt 0.647873 0.680532
vt 0.653237 0.652711
vt 0.677720 0.652711
vt 0.215656 0.463216
vt 0.216807 0.274290
vt 0.267941 0.275391
vt 0.266793 0.464013
vt 0.901243 0.436486
vt 0.949978 0.436486
vt 0.956875 0.470027
vt 0.903254 0.470027
vt 0.640112 0.189681
vt 0.638891 0.000684
vt 0.689971 0.000065
vt 0.691191 0.188758
vt 0.897408 0.358592
vt 0.931405 0.358592
vt 0.943081 0.402944
vt 0.899233 0.402944
vt 0.479900 0.807211
vt 0.512370 0.807211
vt 0.507991 0.841446
vt 0.480208 0.841446
vt 0.313748 0.473312
vt 0.314841 0.293822
vt 0.361741 0.312253
vt 0.360703 0.482610
vt 0.738213 0.179590
vt 0.737053 0.000033
vt 0.784134 0.000000
vt 0.785236 0.170421
vt 0.552795 0.194674
vt 0.552395 0.029733
vt 0.587810 0.001302
vt 0.589034 0.190604
vt 0.128223 0.458393
vt 0.128561 0.293515
vt 0.165672 0.273188
vt 0.164520 0.462418
vt 0.217688 0.679101
vt 0.189659 0.679101
vt 0.192325 0.652967
vt 0.217184 0.652967
vt 0.901816 0.506565
vt 0.951123 0.506565
vt 0.945371 0.543104
vt 0.900378 0.543104
vt 0.393935 0.678952
vt 0.416584 0.678952
vt 0.412208 0.704936
vt 0.392441 0.704936
vt 0.398004 0.156601
vt 0.371186 0.142007
vt 0.373014 0.117267
vt 0.398882 0.128749
vt 0.898895 0.021463
vt 0.878400 0.021463
vt 0.879788 0.000000
vt 0.899555 0.000000
vt 0.822690 0.496269
vt 0.849558 0.481773
vt 0.849483 0.512681
vt 0.823568 0.524058
vt 0.292313 0.681312
vt 0.319248 0.680975
vt 0.317555 0.708984
vt 0.291467 0.709310
vt 0.046568 0.682160
vt 0.017257 0.682160
vt 0.021080 0.652967
vt 0.047171 0.652967
vt 0.729332 0.565368
vt 0.760726 0.557230
vt 0.755051 0.605178
vt 0.727107 0.611063
vt 0.304717 0.087346
vt 0.273361 0.079108
vt 0.274561 0.035615
vt 0.302473 0.041594
vt 0.345613 0.680902
vt 0.321328 0.680391
vt 0.320941 0.652967
vt 0.345419 0.653482
vt 0.579870 0.830702
vt 0.607568 0.830702
vt 0.604538 0.867769
vt 0.580442 0.867769
vt 0.628349 0.605012
vt 0.659820 0.604333
vt 0.653033 0.651582
vt 0.625645 0.652147
vt 0.203727 0.047674
vt 0.172227 0.047086
vt 0.173592 -0.000000
vt 0.201003 0.000480
vt 0.394245 0.730449
vt 0.394245 0.708232
vt 0.418592 0.704936
vt 0.418592 0.729795
vt 0.755881 0.823159
vt 0.776893 0.823159
vt 0.775048 0.860755
vt 0.755473 0.860755
vt 0.118777 0.094170
vt 0.092600 0.101661
vt 0.092359 0.055231
vt 0.116741 0.050140
vt 0.543597 0.559175
vt 0.569744 0.566618
vt 0.565955 0.608289
vt 0.541599 0.603248
vt 0.818944 0.350281
vt 0.849632 0.323291
vt 0.849632 0.365996
vt 0.819904 0.389848
vt 0.896249 0.131741
vt 0.872837 0.131741
vt 0.874234 0.102010
vt 0.896914 0.102010
vt 0.394271 0.302827
vt 0.363651 0.275761
vt 0.365561 0.239268
vt 0.395226 0.263202
vt 0.132098 0.681177
vt 0.172880 0.681177
vt 0.170368 0.709388
vt 0.132652 0.709388
vt 0.820857 0.429164
vt 0.849632 0.408431
vt 0.849632 0.450865
vt 0.821811 0.468479
vt 0.897574 0.072468
vt 0.875623 0.072468
vt 0.877011 0.042926
vt 0.898234 0.042926
vt 0.396176 0.223828
vt 0.367459 0.203007
vt 0.369358 0.166746
vt 0.397125 0.184454
vt 0.133202 0.737420
vt 0.167872 0.737420
vt 0.165376 0.765451
vt 0.133753 0.765451
vt 0.313144 0.259212
vt 0.268850 0.242489
vt 0.269758 0.209588
vt 0.311447 0.224601
vt 0.737691 0.393715
vt 0.782044 0.377115
vt 0.777751 0.413386
vt 0.736007 0.428282
vt 0.044304 0.791825
vt 0.002893 0.791825
vt 0.005785 0.769740
vt 0.044760 0.769740
vt 0.478745 0.678609
vt 0.528821 0.678609
vt 0.525508 0.704507
vt 0.478978 0.704507
vt 0.309204 0.178849
vt 0.270959 0.166094
vt 0.272160 0.122601
vt 0.306960 0.133097
vt 0.733782 0.473978
vt 0.772076 0.461334
vt 0.766401 0.509282
vt 0.731557 0.519673
vt 0.045363 0.740547
vt 0.009609 0.740547
vt 0.013433 0.711354
vt 0.045966 0.711354
vt 0.479285 0.738742
vt 0.521129 0.738742
vt 0.516750 0.772976
vt 0.479593 0.772976
vt 0.214353 0.231772
vt 0.166902 0.230767
vt 0.168132 0.188346
vt 0.211899 0.189255
vt 0.638898 0.421144
vt 0.686296 0.420019
vt 0.680181 0.462586
vt 0.636462 0.463608
vt 0.577642 0.686106
vt 0.619390 0.686106
vt 0.616660 0.719500
vt 0.578156 0.719500
vt 0.676048 0.789058
vt 0.626952 0.789058
vt 0.631784 0.763994
vt 0.676356 0.763994
vt 0.209175 0.142061
vt 0.169497 0.141259
vt 0.170862 0.094173
vt 0.206451 0.094867
vt 0.633758 0.510743
vt 0.673394 0.509835
vt 0.666607 0.557084
vt 0.631054 0.557877
vt 0.578728 0.756568
vt 0.613629 0.756568
vt 0.610599 0.793635
vt 0.579299 0.793635
vt 0.676697 0.736173
vt 0.637147 0.736173
vt 0.642510 0.708353
vt 0.677038 0.708353
vt 0.551448 0.401628
vt 0.585738 0.419099
vt 0.581219 0.458292
vt 0.549700 0.443641
vt 0.126774 0.251548
vt 0.092438 0.269058
vt 0.093427 0.224273
vt 0.124986 0.209582
vt 0.757584 0.688245
vt 0.784597 0.688245
vt 0.782427 0.723779
vt 0.757105 0.723779
vt 0.219793 0.769668
vt 0.178527 0.769668
vt 0.181662 0.745811
vt 0.219200 0.745811
vt 0.547648 0.479371
vt 0.577376 0.491620
vt 0.573533 0.524948
vt 0.545596 0.515102
vt 0.122899 0.173891
vt 0.093134 0.186182
vt 0.092842 0.148091
vt 0.120813 0.138200
vt 0.756697 0.754671
vt 0.780582 0.754671
vt 0.778737 0.785564
vt 0.756289 0.785564
vt 0.218696 0.725523
vt 0.184328 0.725523
vt 0.186993 0.705236
vt 0.218192 0.705236
vt 0.302925 0.728791
vt 0.302925 0.747946
vt 0.287204 0.747946
vt 0.287204 0.728791
vt 0.890371 0.727100
vt 0.914300 0.727100
vt 0.907190 0.823827
vt 0.888034 0.823827
vt 0.068829 0.397783
vt 0.056871 0.500997
vt 0.021341 0.407101
vt 0.045732 0.341198
vt 0.493563 0.255546
vt 0.505559 0.358794
vt 0.494985 0.378266
vt 0.470570 0.312348
vt 0.340096 0.732109
vt 0.320941 0.732109
vt 0.320941 0.708828
vt 0.340096 0.708828
vt 0.888034 0.911914
vt 0.907190 0.911914
vt 0.907190 1.000000
vt 0.888034 1.000000
vt 0.034503 0.273195
vt 0.010670 0.305815
vt -0.000000 0.204529
vt 0.023274 0.205192
vt 0.459367 0.380381
vt 0.483211 0.413004
vt 0.471437 0.447742
vt 0.448164 0.448415
vt 0.435523 0.347759
vt 0.424892 0.449088
vt 0.446155 0.246430
vt 0.058336 0.240574
vt 0.046548 0.205855
vt 0.070123 0.275294
vt 0.868879 0.911914
vt 0.868879 1.000000
vt 0.868879 0.823827
vt 0.359251 0.732109
vt 0.359251 0.708828
vt 0.359251 0.755391
vt 0.340096 0.755391
vt 0.320941 0.755391
vt 0.481567 0.152297
vt 0.516979 0.058164
vt 0.516556 0.198743
vt 0.516133 0.339323
vt 0.080787 0.294568
vt 0.091450 0.313842
vt 0.091926 0.454367
vt 0.092402 0.594893
vt 0.866443 0.727100
vt 0.864006 0.630373
vt 0.302925 0.709636
vt 0.287204 0.709636
vt 0.318645 0.709636
vt 0.318645 0.728791
vt 0.318645 0.747946
vt 0.253065 0.725523
vt 0.249391 0.705236
vt 0.256738 0.745811
vt 0.732811 0.754671
vt 0.733840 0.785564
vt 0.731782 0.723779
vt 0.152665 0.161600
vt 0.148784 0.128309
vt 0.156545 0.194890
vt 0.517920 0.467123
vt 0.517658 0.505256
vt 0.518181 0.428990
vt 0.261058 0.769668
vt 0.265378 0.793525
vt 0.220385 0.793525
vt 0.175392 0.793525
vt 0.730572 0.688245
vt 0.729362 0.652711
vt 0.758064 0.652711
vt 0.786766 0.652711
vt 0.161109 0.234039
vt 0.517157 0.384156
vt 0.553195 0.359615
vt 0.590258 0.379907
vt 0.716247 0.736173
vt 0.711566 0.708353
vt 0.720928 0.763994
vt 0.543826 0.756568
vt 0.548000 0.793635
vt 0.539653 0.719500
vt 0.594121 0.511650
vt 0.595500 0.558670
vt 0.592742 0.464630
vt 0.248853 0.142863
vt 0.242040 0.095562
vt 0.255666 0.190163
vt 0.725145 0.789058
vt 0.729362 0.814122
vt 0.675741 0.814122
vt 0.622120 0.814122
vt 0.535893 0.686106
vt 0.532134 0.652711
vt 0.577127 0.652711
vt 0.622120 0.652711
vt 0.591500 0.422268
vt 0.641334 0.378679
vt 0.692411 0.377451
vt 0.261803 0.232777
vt 0.437442 0.738742
vt 0.442436 0.772976
vt 0.432448 0.704507
vt 0.081116 0.740547
vt 0.078498 0.711354
vt 0.083735 0.769740
vt 0.695488 0.486621
vt 0.696712 0.530064
vt 0.694263 0.443179
vt 0.347448 0.191604
vt 0.341761 0.143594
vt 0.353136 0.239615
vt 0.428670 0.678609
vt 0.424892 0.652711
vt 0.478513 0.652711
vt 0.532134 0.652711
vt 0.085715 0.791825
vt 0.087696 0.813909
vt 0.043848 0.813909
vt -0.000000 0.813909
vt 0.693337 0.410315
vt 0.739374 0.359147
vt 0.786337 0.340843
vt 0.357438 0.275934
vt 0.098532 0.737420
vt 0.102129 0.765451
vt 0.094935 0.709388
vt 0.424892 0.244649
vt 0.424892 0.202161
vt 0.424892 0.287136
vt 0.919525 0.072468
vt 0.919457 0.042926
vt 0.919593 0.102010
vt 0.792082 0.449896
vt 0.793989 0.486094
vt 0.790175 0.413699
vt 0.091316 0.681177
vt 0.087696 0.652967
vt 0.131544 0.652967
vt 0.175392 0.652967
vt 0.424892 0.329894
vt 0.919661 0.131740
vt 0.919729 0.161471
vt 0.895584 0.161471
vt 0.871439 0.161471
vt 0.788256 0.377271
vt 0.817985 0.310714
vt 0.849632 0.280585
vt 0.517450 0.551732
vt 0.517243 0.598207
vt 0.144954 0.086679
vt 0.141124 0.045050
vt 0.734869 0.823159
vt 0.735898 0.860755
vt 0.394245 0.752666
vt 0.418592 0.754655
vt 0.369897 0.750678
vt 0.369897 0.731103
vt 0.369897 0.711528
vt 0.235227 0.048261
vt 0.228414 0.000961
vt 0.596879 0.605691
vt 0.598258 0.652711
vt 0.552173 0.830702
vt 0.556346 0.867769
vt 0.369897 0.681412
vt 0.369897 0.653996
vt 0.369897 0.708828
vt 0.345806 0.708321
vt 0.321716 0.707815
vt 0.336073 0.095583
vt 0.330386 0.047573
vt 0.697937 0.573506
vt 0.699162 0.616949
vt 0.075880 0.682160
vt 0.073262 0.652967
vt 0.265378 0.681649
vt 0.265378 0.709636
vt 0.265378 0.653662
vt 0.293159 0.653314
vt 0.320941 0.652967
vt 0.795821 0.510764
vt 0.797653 0.535435
vt 0.919390 0.021463
vt 0.919322 0.000000
vt 0.424822 0.171196
vt 0.424751 0.140231
vt 0.371286 0.678952
vt 0.372674 0.704936
vt 0.369897 0.652967
vt 0.395428 0.652967
vt 0.420959 0.652967
vt 0.852509 0.506565
vt 0.855385 0.543104
vt 0.849633 0.470027
vt 0.245717 0.679101
vt 0.242044 0.652967
vt 0.127885 0.623271
vt 0.163367 0.651649
vt 0.312654 0.652801
vt 0.359665 0.652967
vt 0.265644 0.652635
vt 0.447430 0.807211
vt 0.452424 0.841446
vt 0.863412 0.358592
vt 0.855385 0.402944
vt 0.871439 0.314240
vt 0.852509 0.436486
vt 0.214505 0.652142
vt 0.706885 0.680532
vt 0.702204 0.652711
vt 0.276291 0.716746
vt 0.265378 0.723856
vt 0.287204 0.709636
vt 0.287204 0.738338
vt 0.287204 0.767040
vt 0.105726 0.784221
vt 0.109323 0.802991
vt 0.391615 0.621750
vt 0.423565 0.590533
vt 0.856819 0.586738
vt 0.849633 0.543104
vt 0.894626 0.543104
vt 0.939619 0.543104
vt 0.871439 0.237855
s 1
usemtl Material.001
f 298/1/1 99/2/1 7/3/1 83/4/1
f 297/5/2 83/6/2 7/7/2 80/8/2
f 296/9/3 86/10/3 5/11/3 82/12/3
f 295/13/4 100/14/5 4/15/6 85/16/4
f 294/17/7 117/18/7 23/19/7 116/20/7
f 293/21/8 213/22/8 69/23/9 210/24/10
f 292/25/11 133/26/11 31/27/11 130/28/11
f 291/29/12 106/30/13 12/31/14 94/32/15
f 290/33/16 91/34/16 11/35/16 95/36/16
f 289/37/17 105/38/17 11/39/18 96/40/18
f 288/41/19 99/42/19 15/43/19 101/44/19
f 287/45/20 125/46/20 27/47/20 122/48/20
f 286/49/21 92/50/22 16/51/23 103/52/24
f 285/53/25 91/54/25 15/55/26 104/56/27
f 284/57/28 86/58/29 17/59/30 109/60/31
f 283/61/32 88/62/33 18/63/34 110/64/35
f 282/65/36 141/66/36 35/67/36 140/68/36
f 281/69/16 105/70/16 17/71/16 112/72/16
f 280/73/37 114/74/37 21/75/37 113/76/37
f 279/77/38 154/78/39 24/79/40 115/80/41
f 278/81/42 155/82/42 22/83/42 113/84/42
f 277/85/43 156/86/44 21/87/45 114/88/46
f 276/89/47 123/90/47 28/91/47 124/92/47
f 275/93/48 127/94/48 25/95/48 124/96/48
f 274/97/49 172/98/50 28/99/51 123/100/52
f 273/101/53 171/102/54 26/103/55 121/104/56
f 272/105/57 129/106/57 30/107/57 130/108/57
f 271/109/58 135/110/58 29/111/58 132/112/58
f 270/113/59 187/114/60 30/115/61 129/116/62
f 269/117/63 188/118/64 32/119/65 131/120/66
f 268/121/67 139/122/67 36/123/67 140/124/67
f 267/125/68 143/126/68 33/127/68 137/128/68
f 266/129/69 204/130/70 34/131/71 138/132/72
f 265/133/73 203/134/74 36/135/75 139/136/76
f 264/137/77 120/138/78 40/139/79 149/140/80
f 263/141/81 119/142/81 39/143/81 150/144/81
f 262/145/82 118/146/83 38/147/84 151/148/85
f 261/149/86 145/150/86 37/151/86 152/152/86
f 260/153/87 148/154/88 44/155/89 157/156/90
f 259/157/81 147/158/81 43/159/91 158/160/91
f 258/161/92 146/162/93 42/163/94 159/164/95
f 257/165/86 153/166/86 41/167/96 160/168/97
f 256/169/98 126/170/99 46/171/100 165/172/101
f 255/173/102 128/174/103 48/175/104 166/176/105
f 254/177/48 163/178/48 47/179/48 167/180/48
f 253/181/20 161/182/20 45/183/20 168/184/20
f 252/185/106 162/186/107 51/187/108 173/188/109
f 251/189/110 164/190/111 52/191/112 174/192/113
f 250/193/48 170/194/48 50/195/48 175/196/48
f 249/197/20 169/198/20 49/199/20 176/200/20
f 248/201/114 136/202/115 56/203/116 181/204/117
f 247/205/118 134/206/119 54/207/120 182/208/121
f 246/209/58 179/210/58 55/211/58 183/212/58
f 245/213/11 177/214/11 53/215/11 184/216/11
f 244/217/122 180/218/123 60/219/124 189/220/125
f 243/221/126 178/222/127 59/223/128 190/224/129
f 242/225/58 186/226/58 58/227/58 191/228/58
f 241/229/11 185/230/11 57/231/11 192/232/11
f 240/233/130 142/234/131 62/235/132 197/236/133
f 239/237/134 144/238/135 64/239/136 198/240/137
f 238/241/138 195/242/138 63/243/139 199/244/140
f 237/245/141 193/246/141 61/247/141 200/248/141
f 236/249/142 194/250/143 67/251/144 205/252/145
f 235/253/146 196/254/147 68/255/148 206/256/149
f 234/257/150 202/258/150 66/259/151 207/260/152
f 233/261/141 201/262/141 65/263/153 208/264/154
f 232/265/155 221/266/155 73/267/155 218/268/155
f 231/269/156 215/270/156 72/271/157 211/272/158
f 230/273/159 216/274/160 70/275/161 209/276/162
f 229/277/163 214/278/164 71/279/165 212/280/166
f 228/281/167 220/282/167 75/283/167 218/284/167
f 227/285/168 223/286/168 76/287/168 219/288/168
f 226/289/169 224/290/169 74/291/169 217/292/169
f 225/293/170 222/294/170 75/295/170 220/296/170
f 223/297/170 225/293/170 220/296/170 76/298/170
f 72/299/171 212/280/166 225/293/170 223/297/170
f 212/280/166 71/279/165 222/294/170 225/293/170
f 221/300/169 226/289/169 217/292/169 73/301/169
f 69/302/172 209/276/162 226/289/169 221/300/169
f 209/276/162 70/275/161 224/290/169 226/289/169
f 224/303/168 227/285/168 219/288/168 74/304/168
f 70/305/173 211/272/158 227/285/168 224/303/168
f 211/272/158 72/271/157 223/286/168 227/285/168
f 217/306/167 228/281/167 218/284/167 73/307/167
f 74/308/167 219/309/167 228/281/167 217/306/167
f 219/309/167 76/310/167 220/282/167 228/281/167
f 215/311/174 229/277/163 212/280/166 72/299/171
f 5/312/175 87/313/176 229/277/163 215/311/174
f 87/313/176 1/314/177 214/278/164 229/277/163
f 213/315/178 230/273/159 209/276/162 69/302/172
f 2/316/179 78/317/180 230/273/159 213/315/178
f 78/317/180 6/318/181 216/274/160 230/273/159
f 216/319/156 231/269/156 211/272/158 70/305/173
f 6/320/156 82/12/156 231/269/156 216/319/156
f 82/12/156 5/11/156 215/270/156 231/269/156
f 222/321/155 232/265/155 218/268/155 75/322/155
f 71/323/182 210/324/10 232/265/155 222/321/155
f 210/324/10 69/325/9 221/266/155 232/265/155
f 194/326/141 233/261/141 208/264/154 67/327/183
f 62/328/141 200/248/141 233/261/141 194/326/141
f 200/248/141 61/247/141 201/262/141 233/261/141
f 196/329/150 234/257/150 207/260/152 68/330/152
f 64/331/184 199/244/140 234/257/150 196/329/150
f 199/244/140 63/243/139 202/258/150 234/257/150
f 201/332/185 235/253/146 206/256/149 65/333/186
f 61/334/187 198/240/137 235/253/146 201/332/185
f 198/240/137 64/239/136 196/254/147 235/253/146
f 202/335/188 236/249/142 205/252/145 66/336/189
f 63/337/190 197/236/133 236/249/142 202/335/188
f 197/236/133 62/235/132 194/250/143 236/249/142
f 142/338/141 237/245/141 200/248/141 62/328/141
f 20/339/141 111/340/141 237/245/141 142/338/141
f 111/340/141 18/341/141 193/246/141 237/245/141
f 144/342/138 238/241/138 199/244/140 64/331/184
f 2/343/138 79/344/138 238/241/138 144/342/138
f 79/344/138 1/345/138 195/242/138 238/241/138
f 193/346/191 239/237/134 198/240/137 61/334/187
f 18/63/34 88/62/33 239/237/134 193/346/191
f 88/62/33 2/316/179 144/238/135 239/237/134
f 195/347/192 240/233/130 197/236/133 63/337/190
f 1/314/177 108/348/193 240/233/130 195/347/192
f 108/348/193 20/349/194 142/234/131 240/233/130
f 178/350/11 241/229/11 192/232/11 59/351/11
f 54/352/11 184/216/11 241/229/11 178/350/11
f 184/216/11 53/215/11 185/230/11 241/229/11
f 180/353/58 242/225/58 191/228/58 60/354/58
f 56/355/58 183/212/58 242/225/58 180/353/58
f 183/212/58 55/211/58 186/226/58 242/225/58
f 186/356/195 243/221/126 190/224/129 58/357/196
f 55/358/197 182/208/121 243/221/126 186/356/195
f 182/208/121 54/207/120 178/222/127 243/221/126
f 185/359/198 244/217/122 189/220/125 57/360/199
f 53/361/200 181/204/117 244/217/122 185/359/198
f 181/204/117 56/203/116 180/218/123 244/217/122
f 134/362/11 245/213/11 184/216/11 54/352/11
f 10/363/11 93/364/11 245/213/11 134/362/11
f 93/364/11 12/365/11 177/214/11 245/213/11
f 136/366/58 246/209/58 183/212/58 56/355/58
f 18/367/58 111/368/58 246/209/58 136/366/58
f 111/368/58 20/369/58 179/210/58 246/209/58
f 179/370/201 247/205/118 182/208/121 55/358/197
f 20/349/194 90/371/202 247/205/118 179/370/201
f 90/371/202 10/372/203 134/206/119 247/205/118
f 177/373/204 248/201/114 181/204/117 53/361/200
f 12/31/14 106/30/13 248/201/114 177/373/204
f 106/30/13 18/63/34 136/202/115 248/201/114
f 162/374/20 249/197/20 176/200/20 51/375/20
f 46/376/20 168/184/20 249/197/20 162/374/20
f 168/184/20 45/183/20 169/198/20 249/197/20
f 164/377/48 250/193/48 175/196/48 52/378/48
f 48/379/48 167/180/48 250/193/48 164/377/48
f 167/180/48 47/179/48 170/194/48 250/193/48
f 169/380/205 251/189/110 174/192/113 49/381/206
f 45/382/207 166/176/105 251/189/110 169/380/205
f 166/176/105 48/175/104 164/190/111 251/189/110
f 170/383/208 252/185/106 173/188/109 50/384/209
f 47/385/210 165/172/101 252/185/106 170/383/208
f 165/172/101 46/171/100 162/186/107 252/185/106
f 126/386/20 253/181/20 168/184/20 46/376/20
f 12/387/20 93/388/20 253/181/20 126/386/20
f 93/388/20 10/389/20 161/182/20 253/181/20
f 128/390/48 254/177/48 167/180/48 48/379/48
f 14/391/48 102/392/48 254/177/48 128/390/48
f 102/392/48 16/393/48 163/178/48 254/177/48
f 161/394/211 255/173/102 166/176/105 45/382/207
f 10/372/203 98/395/212 255/173/102 161/394/211
f 98/395/212 14/396/213 128/174/103 255/173/102
f 163/397/214 256/169/98 165/172/101 47/385/210
f 16/51/23 92/50/22 256/169/98 163/397/214
f 92/50/22 12/31/14 126/170/99 256/169/98
f 146/398/86 257/165/86 160/168/97 42/399/215
f 38/400/86 152/152/86 257/165/86 146/398/86
f 152/152/86 37/151/86 153/166/86 257/165/86
f 147/401/216 258/161/92 159/164/95 43/402/217
f 39/403/218 151/148/85 258/161/92 147/401/216
f 151/148/85 38/147/84 146/162/93 258/161/92
f 148/404/81 259/157/81 158/160/91 44/405/91
f 40/406/81 150/144/81 259/157/81 148/404/81
f 150/144/81 39/143/81 147/158/81 259/157/81
f 153/407/219 260/153/87 157/156/90 41/408/220
f 37/409/221 149/140/80 260/153/87 153/407/219
f 149/140/80 40/139/79 148/154/88 260/153/87
f 118/410/86 261/149/86 152/152/86 38/400/86
f 16/411/86 102/412/86 261/149/86 118/410/86
f 102/412/86 14/413/86 145/150/86 261/149/86
f 119/414/222 262/145/82 151/148/85 39/403/218
f 4/15/6 100/14/5 262/145/82 119/414/222
f 100/14/5 16/51/23 118/146/83 262/145/82
f 120/415/81 263/141/81 150/144/81 40/406/81
f 3/416/223 81/417/223 263/141/81 120/415/81
f 81/417/223 4/418/223 119/142/81 263/141/81
f 145/419/224 264/137/77 149/140/80 37/409/221
f 14/396/213 84/420/225 264/137/77 145/419/224
f 84/420/225 3/421/226 120/138/78 264/137/77
f 143/422/227 265/133/73 139/136/76 33/423/228
f 66/336/189 205/252/145 265/133/73 143/422/227
f 205/252/145 67/251/144 203/134/74 265/133/73
f 141/424/229 266/129/69 138/132/72 35/425/230
f 65/333/186 206/256/149 266/129/69 141/424/229
f 206/256/149 68/255/148 204/130/70 266/129/69
f 204/426/68 267/125/68 137/128/68 34/427/68
f 68/330/152 207/260/152 267/125/68 204/426/68
f 207/260/152 66/259/151 143/126/68 267/125/68
f 138/428/67 268/121/67 140/124/67 35/429/67
f 34/430/67 137/431/67 268/121/67 138/428/67
f 137/431/67 33/432/67 139/122/67 268/121/67
f 133/433/231 269/117/63 131/120/66 31/434/232
f 57/360/199 189/220/125 269/117/63 133/433/231
f 189/220/125 60/219/124 188/118/64 269/117/63
f 135/435/233 270/113/59 129/116/62 29/436/234
f 58/357/196 190/224/129 270/113/59 135/435/233
f 190/224/129 59/223/128 187/114/60 270/113/59
f 188/437/58 271/109/58 132/112/58 32/438/58
f 60/354/58 191/228/58 271/109/58 188/437/58
f 191/228/58 58/227/58 135/110/58 271/109/58
f 131/439/57 272/105/57 130/108/57 31/440/57
f 32/441/57 132/442/57 272/105/57 131/439/57
f 132/442/57 29/443/57 129/106/57 272/105/57
f 127/444/235 273/101/53 121/104/56 25/445/236
f 50/384/209 173/188/109 273/101/53 127/444/235
f 173/188/109 51/187/108 171/102/54 273/101/53
f 125/446/237 274/97/49 123/100/52 27/447/238
f 49/381/206 174/192/113 274/97/49 125/446/237
f 174/192/113 52/191/112 172/98/50 274/97/49
f 172/448/48 275/93/48 124/96/48 28/449/48
f 52/378/48 175/196/48 275/93/48 172/448/48
f 175/196/48 50/195/48 127/94/48 275/93/48
f 121/450/47 276/89/47 124/92/47 25/451/47
f 26/452/47 122/453/47 276/89/47 121/450/47
f 122/453/47 27/454/47 123/90/47 276/89/47
f 117/455/239 277/85/43 114/88/46 23/456/240
f 41/408/220 157/156/90 277/85/43 117/455/239
f 157/156/90 44/155/89 156/86/44 277/85/43
f 156/457/42 278/81/42 113/84/42 21/458/42
f 44/405/91 158/160/91 278/81/42 156/457/42
f 158/160/91 43/159/91 155/82/42 278/81/42
f 155/459/241 279/77/38 115/80/41 22/460/242
f 43/402/217 159/164/95 279/77/38 155/459/241
f 159/164/95 42/163/94 154/78/39 279/77/38
f 115/461/37 280/73/37 113/76/37 22/462/37
f 24/463/37 116/464/37 280/73/37 115/461/37
f 116/464/37 23/465/37 114/74/37 280/73/37
f 89/466/16 281/69/16 112/72/16 19/467/16
f 9/468/16 95/36/16 281/69/16 89/466/16
f 95/36/16 11/35/16 105/70/16 281/69/16
f 203/469/36 282/65/36 140/68/36 36/470/36
f 67/327/183 208/264/154 282/65/36 203/469/36
f 208/264/154 65/263/153 141/66/36 282/65/36
f 107/471/243 283/61/32 110/64/35 19/472/244
f 6/318/181 78/317/180 283/61/32 107/471/243
f 78/317/180 2/316/179 88/62/33 283/61/32
f 108/348/193 284/57/28 109/60/31 20/349/194
f 1/314/177 87/313/176 284/57/28 108/348/193
f 87/313/176 5/312/175 86/58/29 284/57/28
f 98/395/212 285/53/25 104/56/27 14/396/213
f 10/372/203 96/40/18 285/53/25 98/395/212
f 96/40/18 11/39/18 91/54/25 285/53/25
f 97/473/21 286/49/21 103/52/24 13/474/245
f 9/475/15 94/32/15 286/49/21 97/473/21
f 94/32/15 12/31/14 92/50/22 286/49/21
f 171/476/20 287/45/20 122/48/20 26/477/20
f 51/375/20 176/200/20 287/45/20 171/476/20
f 176/200/20 49/199/20 125/46/20 287/45/20
f 77/478/19 288/41/19 101/44/19 13/479/19
f 8/480/19 80/8/19 288/41/19 77/478/19
f 80/8/19 7/7/19 99/42/19 288/41/19
f 90/371/202 289/37/17 96/40/18 10/372/203
f 20/349/194 109/60/31 289/37/17 90/371/202
f 109/60/31 17/59/30 105/38/17 289/37/17
f 97/481/16 290/33/16 95/36/16 9/468/16
f 13/479/16 101/44/16 290/33/16 97/481/16
f 101/44/16 15/43/16 91/34/16 290/33/16
f 89/482/12 291/29/12 94/32/15 9/475/15
f 19/472/244 110/64/35 291/29/12 89/482/12
f 110/64/35 18/63/34 106/30/13 291/29/12
f 187/483/11 292/25/11 130/28/11 30/484/11
f 59/351/11 192/232/11 292/25/11 187/483/11
f 192/232/11 57/231/11 133/26/11 292/25/11
f 214/485/8 293/21/8 210/24/10 71/486/182
f 1/487/8 79/488/8 293/21/8 214/485/8
f 79/488/8 2/489/8 213/22/8 293/21/8
f 154/490/7 294/17/7 116/20/7 24/491/7
f 42/399/215 160/168/97 294/17/7 154/490/7
f 160/168/97 41/167/96 117/18/7 294/17/7
f 77/492/4 295/13/4 85/16/4 8/493/4
f 13/474/245 103/52/24 295/13/4 77/492/4
f 103/52/24 16/51/23 100/14/5 295/13/4
f 107/494/3 296/9/3 82/12/3 6/320/3
f 19/495/3 112/496/3 296/9/3 107/494/3
f 112/496/3 17/497/3 86/10/3 296/9/3
f 85/498/2 297/5/2 80/8/2 8/480/2
f 4/418/223 81/417/223 297/5/2 85/498/2
f 81/417/223 3/416/223 83/6/2 297/5/2
f 84/420/225 298/1/1 83/4/1 3/421/226
f 14/396/213 104/56/27 298/1/1 84/420/225
f 104/56/27 15/55/26 99/2/1 298/1/1
